PathFileType	4	(X/Y/Z)	/Users/visionmauri/Downloads/Videos/OAW03-top_Sports2D/OAW03-top_Sports2D_px_person00.trc
DataRate	CameraRate	NumFrames	NumMarkers	Units	OrigDataRate	OrigDataStartFrame	OrigNumFrames
30.0	30.0	7	22	m	30.0	1609	2146
Frame#	Time	Hip			RHip			RKnee			RAnkle			RBigToe			RSmallToe			RHeel			LHip			LKnee			LAnkle			LBigToe			LSmallToe			LHeel			Neck			Head			Nose			RShoulder			RElbow			RWrist			LShoulder			LElbow			LWrist			
		X1	Y1	Z1	X2	Y2	Z2	X3	Y3	Z3	X4	Y4	Z4	X5	Y5	Z5	X6	Y6	Z6	X7	Y7	Z7	X8	Y8	Z8	X9	Y9	Z9	X10	Y10	Z10	X11	Y11	Z11	X12	Y12	Z12	X13	Y13	Z13	X14	Y14	Z14	X15	Y15	Z15	X16	Y16	Z16	X17	Y17	Z17	X18	Y18	Z18	X19	Y19	Z19	X20	Y20	Z20	X21	Y21	Z21	X22	Y22	Z22
1609	53.658337218337216	527.2245568182411	650.4610641362603	0.0	511.24865847616763	653.249072781737	0.0	511.1173582056234	717.1633942346456	0.0	517.3933581250634	772.3069229752998	0.0	521.8614007641049	795.6440068441639	0.0	513.0550165222857	794.6120251501698	0.0	518.5793387416186	779.6094566866997	0.0	543.9582791455504	652.2782019788466	0.0	541.9460405795	714.8109250702224	0.0	538.8027548778791	775.4116067206858	0.0	536.9318335140987	798.1114186387741	0.0	546.8657669351414	796.3317676237626	0.0	537.1763354180968	783.6249279178413	0.0	525.2571772096005	549.6483649271494	0.0	527.1558147288723	502.61632306033397	0.0	527.4517126559527	535.035531940729	0.0	493.73572476145625	559.3690942213482	0.0	480.95857423310935	612.577055313126	0.0	478.5645011341744	657.37982929601	0.0	557.3902796955801	558.5987652515644	0.0	571.356650879823	609.5467894220693	0.0	577.0542295007024	653.499066619203	0.0
1610	53.69168609168609	527.6034630897143	651.2384148660977	0.0	511.42475902316284	654.8991358804785	0.0	511.0415093754591	719.7228026658647	0.0	517.8648982200087	772.3106410590651	0.0	521.3252028918714	795.7466985161842	0.0	512.94472922706	794.4949189515568	0.0	519.1599087796566	780.0337641999997	0.0	544.6529582079785	653.5542893629041	0.0	542.3235786251884	717.9154185603406	0.0	538.7681830312775	780.623096773566	0.0	537.0694139261359	801.7341829160366	0.0	546.617151023504	800.5622391737036	0.0	536.6232285322739	789.4737260138265	0.0	525.6522441039665	550.2977471209824	0.0	527.2888420410364	502.13911978672513	0.0	528.1063462731497	535.0758036632079	0.0	493.793632344669	560.702234990477	0.0	480.3186127865698	613.1710000939037	0.0	478.8581839892741	657.6439823814463	0.0	557.4908724340116	560.0690780854793	0.0	571.620110493924	610.3467074287785	0.0	579.7721088878902	653.9092763213678	0.0
1611	53.725034965034965	527.8893300991176	653.0551060584053	0.0	511.4117662493489	657.1039123096746	0.0	510.9266795090906	721.9719676962661	0.0	518.4443825821548	772.203462552417	0.0	520.7115268112004	795.7753589398073	0.0	512.2109796382434	793.922240239358	0.0	520.1056161259667	780.3987908527515	0.0	545.2210525626641	655.5684458794005	0.0	542.9068956536465	720.5942787797237	0.0	538.8026716176046	783.7138648250785	0.0	537.1446059541115	803.8725729079147	0.0	546.3708124756196	802.9988078730551	0.0	536.07172560021	792.842172223765	0.0	526.0155630552342	552.0910497957155	0.0	527.4472139250269	503.82335171514444	0.0	528.4921863737219	536.9938369395493	0.0	493.72415418565225	562.8264815356205	0.0	480.15110921384314	614.3812880556105	0.0	479.36680359568203	658.6287855763162	0.0	557.9464990826148	562.2630860390748	0.0	571.7914730958755	611.4427083079175	0.0	582.1202764153203	654.5180320606621	0.0
1612	53.758383838383835	528.3206136323494	655.2020980030586	0.0	511.50465960458945	659.1413942150198	0.0	510.62093970452804	722.9770864243019	0.0	518.9866435136754	772.1955074110031	0.0	520.2172316139267	795.5869924251002	0.0	511.43583351298685	793.2022823427195	0.0	520.7237211676389	780.8552517383225	0.0	545.7346074015032	657.6564380581999	0.0	543.4038932559608	722.2190468183564	0.0	538.7633300836699	785.4327536689801	0.0	536.708669030672	804.8647570591406	0.0	546.0823066742787	804.130381129356	0.0	535.7329898325025	795.0108748623223	0.0	526.5124252884801	554.4632558356172	0.0	527.9167445590208	506.5424889458857	0.0	528.8752507262889	538.4968669516347	0.0	493.822992540027	565.2515464900687	0.0	480.2901095493336	615.9905820408425	0.0	480.06043104709545	660.1938838360326	0.0	558.8644235616143	564.6410351359892	0.0	572.3601148504014	612.8411869253141	0.0	584.2474788597046	655.4298534805092	0.0
1613	53.79173271173271	528.7107847364713	656.9777614010903	0.0	511.69830055768387	660.6240781417545	0.0	509.9898941791041	723.1906451831416	0.0	519.3083896125532	772.3601809096816	0.0	519.9033377203766	795.3208065113083	0.0	511.27473719802333	792.7019165992828	0.0	520.7408196635272	781.3868693253518	0.0	546.0373723249186	659.405839782322	0.0	543.5166486650292	723.4197163690478	0.0	538.3554593579528	786.981061495252	0.0	535.6414265034906	806.0204233743076	0.0	545.321308104898	805.451147575113	0.0	535.3869854659935	797.2763730681463	0.0	527.245124060331	556.1468993203652	0.0	528.7951711632458	508.37997602079656	0.0	529.4278858010858	538.9361222603371	0.0	494.4648082153545	567.2010146698732	0.0	480.5043390024352	617.3897536536082	0.0	480.7021531339387	661.5509076889476	0.0	560.0426439822052	566.6418341633632	0.0	573.4918409195271	614.3580243123967	0.0	586.5290895596253	656.4899600948575	0.0
1614	53.825081585081584	528.8444596217204	658.7118856558396	0.0	511.90397985063345	661.8526139316762	0.0	509.2063204514751	723.6809995672086	0.0	519.2850433192272	772.5641122565303	0.0	519.4539569047125	795.3549071137834	0.0	511.46923539635964	792.5283813980906	0.0	520.6177480350171	781.3509855964676	0.0	546.0203983839118	660.937604055343	0.0	543.0108093866978	725.0617298347947	0.0	537.4301390012818	789.5448437783134	0.0	534.3987119895509	808.9167971556394	0.0	544.0438913339958	808.3658797839972	0.0	534.7267108651176	800.2212299867227	0.0	528.1669756377444	557.4123466627505	0.0	529.8083936157348	509.2376388209102	0.0	529.9705469239617	540.9910056624079	0.0	495.45237567903325	568.374245653842	0.0	480.76963215087653	618.3034180840208	0.0	480.99251360295125	662.3807952258251	0.0	561.2569621375203	568.0596177657017	0.0	575.0728073188766	615.6586271957057	0.0	589.1169405919156	657.7660510195287	0.0
1615	53.858430458430455	528.9079168714384	660.7803660717638	0.0	512.095408402688	663.2183873273887	0.0	508.5116353007277	724.8563648225402	0.0	519.0495646153435	772.5211841451991	0.0	518.7509986378527	795.6065152637244	0.0	511.4609310776663	792.579694047964	0.0	520.7600987895764	780.0441790675892	0.0	545.9717200737506	662.6242218323763	0.0	542.067670163742	727.1803216572778	0.0	536.2183689214075	792.9993887528163	0.0	533.532090046733	813.4589629626986	0.0	542.8144003883071	812.5371647054144	0.0	533.8026581123786	803.2471498602857	0.0	529.1560489224747	558.9853761684689	0.0	530.7638473388414	511.12502480389105	0.0	530.563135299306	546.1018376455457	0.0	496.33273770279067	569.1458013340996	0.0	481.1709705434235	619.1860804534452	0.0	481.0122909240208	662.9965953393548	0.0	562.38106874671	569.0637235505644	0.0	576.8549366672094	616.8220006453124	0.0	591.7520605072028	659.3085415329856	0.0
